<svg xmlns="http://www.w3.org/2000/svg" viewBox="0 0 200 200"><defs><style>.cls-1{fill:#fff;}.cls-2{fill:#18a452;}.cls-3{fill:#fbca14;}.cls-4{fill:#f7f6f0;}.cls-5{fill:#be1818;}</style></defs><title>iconos_200x200_remake</title><g id="Capa_2" data-name="Capa 2"><rect class="cls-1" x="-26.01" y="-26.01" width="252.03" height="252.03"/></g><g id="Capa_1" data-name="Capa 1"><path class="cls-2" d="M124.45,75.46c1.63.1,2.31,1.35,2.84,2.57A48.15,48.15,0,0,1,130,88.69a106.19,106.19,0,0,1,1.61,11.78c.18,2.85.72,5.72.09,8.59-.47,2.16-2.31,3.06-3.87,4.14-2.83,2-5.86,3.62-8.69,5.58a15.4,15.4,0,0,0-6.1,8.13A31,31,0,0,1,111,132a2.11,2.11,0,0,1-3.11,1.13,13.55,13.55,0,0,1-3.8-2.84c-.57-.51-1.12-1.06-1.69-1.58-2-1.86-2.5-1.84-4.56.05a32.7,32.7,0,0,1-4.16,3.72c-2.24,1.46-3.61,1.14-4.66-1.29-.74-1.69-1.45-3.39-2-5.15a15,15,0,0,0-6.9-8c-3-1.84-6-3.76-9-5.81a6,6,0,0,1-2.72-5.42A107.75,107.75,0,0,1,72.5,79.69a16.27,16.27,0,0,1,1.18-2.63,2.79,2.79,0,0,1,2.25-1.61,3.26,3.26,0,0,1,1.3,2.87,39.29,39.29,0,0,1-.35,4.86A44.44,44.44,0,0,0,76,94.09c.19,3.69.94,7.17,3.88,9.77,1.63,1.43,3.26,2.86,4.92,4.24.89.74,1.84,1.41,2.79,2.06.33.24.8.57,1.16.13s-.07-.79-.37-1.09a9.45,9.45,0,0,0-.76-.66,82.65,82.65,0,0,1-6.11-5.72A6.09,6.09,0,0,1,79.8,100c-.49-2,.41-2.9,2.39-2.37a8.58,8.58,0,0,1,2.48,1.14,67.94,67.94,0,0,1,7.24,5.5c3.54,3,6.92,6.19,7.62,11.18,0,.41.21,1.12.72,1.12s.53-.72.59-1.15a14.19,14.19,0,0,1,4.83-8.48l1.51-1.35c3.21-2.89,6.44-5.76,10.41-7.63a2.37,2.37,0,0,1,2.59-.1c.85.63.61,1.52.37,2.38a5.34,5.34,0,0,1-1.06,2,55.11,55.11,0,0,1-4.41,4.37c-1,.94-2.09,1.85-3.13,2.78-.25.23-.53.53-.25.87a.75.75,0,0,0,.94.1,5.56,5.56,0,0,0,.72-.47,87.85,87.85,0,0,0,7.22-6A10.68,10.68,0,0,0,123.93,98a33.42,33.42,0,0,0-.36-14.32c-.15-1.41-.37-2.82-.43-4.24S123,76.45,124.45,75.46Z"/><path class="cls-3" d="M76.88,83.18a39.29,39.29,0,0,0,.35-4.86,3.26,3.26,0,0,0-1.3-2.87,35,35,0,0,1,.13-7.92,3.35,3.35,0,0,1,.38-1.22c.31-.47.67-1,1.34-.93s.82.63,1,1.16a46.77,46.77,0,0,1,1.14,6.23,20,20,0,0,0,2,7.32,6.83,6.83,0,0,0,2.36,2.47,36.94,36.94,0,0,0,5.84,2.73,2.44,2.44,0,0,0,1.69-.08c-1.88-1-3.54-2-5.25-2.88a9.76,9.76,0,0,1-2-1.45,1.66,1.66,0,0,1-.49-2,1.45,1.45,0,0,1,1.58-.79c2,.07,3.76,1.12,5.54,1.92,1.58.72,3.08,1.6,4.6,2.42A8.7,8.7,0,0,1,99.6,85.9c.38.7,1,.77,1.31.06,1.37-2.91,4.35-3.67,6.8-5.08a24.46,24.46,0,0,1,5.53-2.45,4.77,4.77,0,0,1,1-.25c.82-.08,1.72-.24,2.13.74a1.9,1.9,0,0,1-.74,2.29c-1.75,1.56-4,2.27-6,3.4-.28.15-.67.16-.81.65a1.67,1.67,0,0,0,1.48,0,22.29,22.29,0,0,0,7-3.82,8.69,8.69,0,0,0,2.33-4.55c.69-2.76.93-5.59,1.41-8.39a11.55,11.55,0,0,1,.28-1.27c.28-.9.38-2.22,1.54-2.14s1.47,1.39,1.65,2.44a30,30,0,0,1,0,7.92c-1.44,1-1.38,2.51-1.31,4s.28,2.83.43,4.24c-.09.47-.19.94-.28,1.41-.39,2.2-1.32,4-3.56,4.85a37.12,37.12,0,0,1-3.68,1.26c-5,1.25-9.28,3.33-11.73,8.24-1,2.06-1.41,2-2.93.32-.79-.86-1.43-1.16-2.26.06-1,1.44-2,1.34-2.88-.1-.26-.4-.53-.81-.76-1.23A12.27,12.27,0,0,0,88,92.39c-2.21-.64-4.38-1.43-6.56-2.16s-3.86-2.13-4.19-4.64C77.18,84.78,77,84,76.88,83.18Z"/><path class="cls-3" d="M113.36,62.09c1.32,0,2.77-1.21,3.38-2.76,1.05-2.64,1.11-5.45,1.42-8.22.1-.93,0-2,1.27-2.06,1.39,0,1.55,1.18,1.55,2.18a56.37,56.37,0,0,1-.7,9.35A22.49,22.49,0,0,1,119,65.75a3.61,3.61,0,0,1-2.34,2.17c-1.87.62-3.76,1.21-5.57,2a8.8,8.8,0,0,0-4.91,4.23c-.72,1.48-2.09,1.55-3.05.14a24.52,24.52,0,0,1-2.9-4.71,30.89,30.89,0,0,1-2.88,4.52c-1,1.52-1.95,1.72-2.85.2-2.25-3.79-6-4.93-9.84-6A4.75,4.75,0,0,1,81,64.7a47.86,47.86,0,0,1-1.53-13.58,3.37,3.37,0,0,1,.17-1c.19-.6.41-1.29,1.19-1.24a1.44,1.44,0,0,1,1.37,1.29c.22,1.53.39,3.06.54,4.59a16.7,16.7,0,0,0,1.07,4.62,3.36,3.36,0,0,0,1,1.41c.26.21.51.54.88.35s.08-.5.07-.77c0-1.07.5-1.58,1.61-1.52,1.55.09,2.82,1,4.19,1.51A25.92,25.92,0,0,1,96,62.88c1.68,1.1,2.13,3.05,3.18,4.58s1.23,1.66,2-.1c2.22-4.87,6.64-6.69,11.21-8.35.8-.28,1.71-.38,2.12.6a1.51,1.51,0,0,1-.87,2A.41.41,0,0,0,113.36,62.09Zm-.75.39a1.43,1.43,0,0,0-.34-.06s-.07.14-.11.21a1.35,1.35,0,0,0,.32.11S112.56,62.6,112.61,62.48Zm-26.8-.87a2.24,2.24,0,0,0,.34.11.52.52,0,0,0,.09-.2,1.82,1.82,0,0,0-.31-.16Z"/><path class="cls-3" d="M83.46,42.31c0-.87,0-1.74,0-2.6a1.12,1.12,0,0,1,1.1-1.13c.7,0,.88.48,1,1,.28,1.94.55,3.9.84,5.84a7,7,0,0,0,1.1,2.5.74.74,0,0,0,.84.41c.42-.12.22-.45.2-.72-.12-1.34.74-1.48,1.67-1.18C94.26,47.79,98,49.6,99.58,54a2.32,2.32,0,0,1-.24,2.2c-.59.88-1.18,1.76-1.82,2.6s-1.32.88-1.88,0c-1.81-2.79-4.57-4-7.65-4.7a4.47,4.47,0,0,1-3.59-3.81A42.51,42.51,0,0,1,83.46,42.31Z"/><path class="cls-3" d="M107.38,50.48c4.67-.48,6.9-2.77,7.18-7.21.08-1.15.25-2.29.4-3.44.07-.56.26-1.08.94-1.06s1,.53,1,1.18A35.27,35.27,0,0,1,115.5,51.5a3.18,3.18,0,0,1-2.26,2.19c-1.46.5-2.92,1-4.36,1.53a7.77,7.77,0,0,0-3.69,3.11c-1,1.52-1.58,1.49-2.65,0-2.82-4-2-3.15-.15-6.85.82-1.63,2.35-2.36,3.84-3.12,1.08-.54,2.2-1,3.29-1.49.7-.32,1.49-.59,1.92.22s-.28,1.27-.92,1.68a6.47,6.47,0,0,1-2.2,1A1.5,1.5,0,0,0,107.38,50.48Z"/><path class="cls-3" d="M113.48,29.58a26.3,26.3,0,0,1-.26,4.61c-.19,2.37-1.13,3.43-3.47,4a9.22,9.22,0,0,0-5.11,3c-1.15,1.35-1.72,1.26-2.67-.27a4.79,4.79,0,0,1,1.82-6.76A17.49,17.49,0,0,1,108.34,32c.67-.16,1.26-.24,1.4.69,0,.3-.12.78.39.77s.64-.37.8-.74a11,11,0,0,0,.61-4.41,5.69,5.69,0,0,1,.16-2c.14-.36.25-.76.75-.75s.63.36.78.73A10.48,10.48,0,0,1,113.48,29.58Z"/><path class="cls-3" d="M91,33.65c-.08-.54-.6-1.11,0-1.59s1.11-.17,1.64.07c2.41,1.08,4.89,2,6.21,4.61a4,4,0,0,1-1.41,5.34c-.66.37-1.05-.06-1.32-.49a8.24,8.24,0,0,0-5.59-3.51A3.91,3.91,0,0,1,87.3,34.5,34.79,34.79,0,0,1,87,27.44a5.58,5.58,0,0,1,.28-1.26c.1-.36.31-.63.7-.62s.58.31.69.65a8,8,0,0,1,.29,2.28,9.18,9.18,0,0,0,.56,4A1.66,1.66,0,0,0,91,33.63c.1.46.48.51.85.6l.88.27h0l-.89-.27C91.64,33.86,91.29,33.76,91,33.65Z"/><path class="cls-3" d="M90.46,20.93a13.29,13.29,0,0,1,.75-3.62c.16-.36.41-.72.86-.61s.33.55.31.86c0,.76-.2,1.53-.22,2.29s.09,1.35,1.07.85a.86.86,0,0,1,.27-.09c2-.33,6.11,2.81,6.28,4.84A4.14,4.14,0,0,1,98,28.12a.85.85,0,0,1-1-.53,4.61,4.61,0,0,0-3.36-2.25C91,24.88,90.63,23.43,90.46,20.93Z"/><path class="cls-3" d="M108.28,19.88c-.08-.81-.18-1.62-.24-2.43,0-.27-.08-.62.25-.75s.54.14.72.35c1.19,1.36,1.17,5.86,0,7.27a3.11,3.11,0,0,1-1.91.88,6.85,6.85,0,0,0-3.27,2c-.44.44-.81,1.35-1.74.71s-1.62-2.33-1.3-3.07c1-2.15,2.83-3.17,4.82-4.06a1.54,1.54,0,0,1,1.4,0C108.19,21.48,108.31,20.82,108.28,19.88Z"/><path class="cls-4" d="M112.61,62.48c0,.12-.1.26-.13.26a1.35,1.35,0,0,1-.32-.11c0-.07.07-.2.11-.21A1.43,1.43,0,0,1,112.61,62.48Z"/><path class="cls-4" d="M85.81,61.61l.12-.25a1.82,1.82,0,0,1,.31.16.52.52,0,0,1-.09.2A2.24,2.24,0,0,1,85.81,61.61Z"/><path class="cls-4" d="M91.8,34.24l.89.27h0l-.88-.27Z"/><path class="cls-4" d="M92.69,34.51h0Z"/><path class="cls-5" d="M52.35,147.41v10.51H48V147.41H44.6v-4.23H55.7v4.23Z"/><path class="cls-5" d="M63.42,142.81a7.25,7.25,0,0,1,5.37,2.28A7.53,7.53,0,0,1,71,150.55a7.75,7.75,0,1,1-13.2-5.49A7.65,7.65,0,0,1,63.42,142.81Zm-.13,4.35a3.07,3.07,0,0,0-2.3,1,3.31,3.31,0,0,0-1,2.4,3.35,3.35,0,0,0,1,2.39,3.16,3.16,0,0,0,4.6,0,3.52,3.52,0,0,0,0-4.81A3.06,3.06,0,0,0,63.29,147.16Z"/><path class="cls-5" d="M76.59,147.14v10.78H72.21V143.18h5.62a5.74,5.74,0,0,1,4,1.28,4.75,4.75,0,0,1-.38,7.38L84,157.92h-4.6l-2.13-4.75v-3.79h.35c.92,0,1.38-.4,1.38-1.19s-.53-1.05-1.6-1.05Z"/><path class="cls-5" d="M91,147.41v10.51H86.58V147.41H83.22v-4.23H94.31v4.23Z"/><path class="cls-5" d="M99.43,143.18v14.74H95.05V143.18Z"/><path class="cls-5" d="M101.2,143.18h4.38v8.76a2.05,2.05,0,0,0,.33,1.37,1.86,1.86,0,0,0,1.3.34h.23v4.27h-1.17a4.92,4.92,0,0,1-3.74-1.4,5.38,5.38,0,0,1-1.33-3.88Z"/><path class="cls-5" d="M107.73,143.18h4.38v8.76a2.05,2.05,0,0,0,.33,1.37,1.88,1.88,0,0,0,1.3.34H114v4.27H112.8a4.89,4.89,0,0,1-3.73-1.4,5.38,5.38,0,0,1-1.34-3.88Z"/><path class="cls-5" d="M122.43,148.92v3.28h-2.86a1.53,1.53,0,0,0-.83.17.67.67,0,0,0-.24.58c0,.31.08.52.25.61a2.21,2.21,0,0,0,1,.15h2.95v4.21h-3.45a5.32,5.32,0,0,1-3.71-1.16,4.27,4.27,0,0,1-1.29-3.35v-5.78a4.34,4.34,0,0,1,1.22-3.28,4.73,4.73,0,0,1,3.42-1.17h3.81v4.23h-2.8c-.75,0-1.13.25-1.13.74a.65.65,0,0,0,.27.6,2,2,0,0,0,1,.17Z"/><path class="cls-5" d="M128.72,147.14v10.78h-4.38V143.18H130a5.73,5.73,0,0,1,4,1.28,4.75,4.75,0,0,1-.38,7.38l2.53,6.08h-4.6l-2.13-4.75v-3.79h.35c.92,0,1.38-.4,1.38-1.19s-.53-1.05-1.6-1.05Z"/><path class="cls-5" d="M141.07,143.18v14.74h-4.39V143.18Zm2-4.17-3,3h-2.69l2.69-3Z"/><path class="cls-5" d="M148.48,150.52v3.89h-1.27v3.51h-4.38v-9.37a5.77,5.77,0,0,1,1.48-4.23,5.62,5.62,0,0,1,4.18-1.51,4.93,4.93,0,0,1,3.83,1.37,6.11,6.11,0,0,1,1.24,4.22v9.52h-4.38v-9.23a2.41,2.41,0,0,0-.21-1.2.78.78,0,0,0-.73-.33c-.68,0-1,.51-1,1.53v1.83Z"/><path class="cls-2" d="M10.61,164h6v12a2.71,2.71,0,0,0,.46,1.87,2.45,2.45,0,0,0,1.78.47h.31v5.86h-1.6a6.77,6.77,0,0,1-5.12-1.91,7.42,7.42,0,0,1-1.84-5.33Z"/><path class="cls-2" d="M28.53,174v5.33H26.79v4.81h-6V171.31a7.88,7.88,0,0,1,2-5.79,7.66,7.66,0,0,1,5.72-2.07q3.56,0,5.26,1.88t1.7,5.78v13h-6V171.51a3.53,3.53,0,0,0-.28-1.65,1.11,1.11,0,0,0-1-.46c-.94,0-1.41.7-1.41,2.11V174Z"/><path class="cls-2" d="M57.5,171.82v4.5H53.57a2.1,2.1,0,0,0-1.13.23.93.93,0,0,0-.33.8c0,.43.11.71.34.84a3.21,3.21,0,0,0,1.39.2h4v5.77H53.16a7.34,7.34,0,0,1-5.09-1.59A5.85,5.85,0,0,1,46.31,178v-7.92a5.92,5.92,0,0,1,1.66-4.5,6.47,6.47,0,0,1,4.69-1.6h5.22v5.8H54.05c-1,0-1.56.33-1.56,1a.91.91,0,0,0,.37.82,2.75,2.75,0,0,0,1.32.23Z"/><path class="cls-2" d="M70.82,163.87v5.76a3.37,3.37,0,0,0-1-.23,1.58,1.58,0,0,0-1.17.51,1.68,1.68,0,0,0-.48,1.21,3.23,3.23,0,0,0,.53,1.54l.46.8a8.34,8.34,0,0,1,1.24,4.17,6.71,6.71,0,0,1-2.09,5,7,7,0,0,1-5.12,2,6.76,6.76,0,0,1-2.87-.67v-5.85a2.89,2.89,0,0,0,1.52.55,1.93,1.93,0,0,0,1.31-.45,1.44,1.44,0,0,0,.53-1.13,5.7,5.7,0,0,0-.84-1.94,9.5,9.5,0,0,1-1.35-4.74,6.78,6.78,0,0,1,2-4.92,6.59,6.59,0,0,1,4.87-2.07A7.32,7.32,0,0,1,70.82,163.87Z"/><path class="cls-2" d="M80.44,177.18v-5.3c1.22,0,1.82-.47,1.82-1.4s-.46-1.27-1.39-1.27-1.4.58-1.4,1.75v13.2h-6V171.58a11,11,0,0,1,.39-3.2A6.43,6.43,0,0,1,75.19,166a7.48,7.48,0,0,1,2.66-1.89,8.29,8.29,0,0,1,3.3-.7,7,7,0,0,1,5.18,2.08,7,7,0,0,1,2.09,5.13,6.49,6.49,0,0,1-1.88,4.83,7.09,7.09,0,0,1-5.18,1.7Z"/><path class="cls-2" d="M101.69,171.82v4.5H97.76a2.1,2.1,0,0,0-1.13.23.93.93,0,0,0-.33.8c0,.43.11.71.34.84a3.18,3.18,0,0,0,1.39.2h4v5.77H97.35a7.34,7.34,0,0,1-5.09-1.59A5.85,5.85,0,0,1,90.49,178v-7.92a5.93,5.93,0,0,1,1.67-4.5,6.47,6.47,0,0,1,4.68-1.6h5.23v5.8H98.24c-1,0-1.56.33-1.56,1a.91.91,0,0,0,.37.82,2.75,2.75,0,0,0,1.32.23Z"/><path class="cls-2" d="M111.53,169.39v14.77h-6V164h7.71a7.89,7.89,0,0,1,5.46,1.74,6.52,6.52,0,0,1-.51,10.13l3.46,8.33h-6.31l-2.91-6.51v-5.2h.47c1.26,0,1.9-.54,1.9-1.62s-.73-1.44-2.19-1.44Z"/><path class="cls-2" d="M131,174v5.33h-1.73v4.81h-6V171.31a7.92,7.92,0,0,1,2-5.79,7.68,7.68,0,0,1,5.73-2.07c2.36,0,4.12.63,5.25,1.88s1.7,3.17,1.7,5.78v13h-6V171.51a3.41,3.41,0,0,0-.28-1.65,1.09,1.09,0,0,0-1-.46c-.94,0-1.41.7-1.41,2.11V174Z"/><path class="cls-2" d="M141.18,184.16V171.05a7.46,7.46,0,0,1,2.07-5.52,7.38,7.38,0,0,1,5.5-2.08,6.65,6.65,0,0,1,5.23,2,8.34,8.34,0,0,1,1.81,5.78v12.91h-6V171.25c0-1.23-.44-1.85-1.32-1.85s-1.27.62-1.27,1.85v12.91Z"/><path class="cls-2" d="M173.1,164l-6.28,14.4H173v5.8H157.78l6.24-14.4h-6.6V164Z"/><path class="cls-2" d="M182.45,174v5.33h-1.73v4.81h-6V171.31a7.88,7.88,0,0,1,2-5.79,7.64,7.64,0,0,1,5.72-2.07q3.56,0,5.25,1.88t1.71,5.78v13h-6V171.51a3.38,3.38,0,0,0-.29-1.65,1.08,1.08,0,0,0-1-.46c-.94,0-1.41.7-1.41,2.11V174Z"/></g></svg>